<svg xmlns="http://www.w3.org/2000/svg" width="500" height="500" viewBox="0 0 500 500">
<g>
<path d="M 156.68 362.25 C155.79,360.19 152.62,352.65 149.63,345.50 C142.62,328.72 129.95,298.66 119.49,274.00 C105.89,241.94 89.62,203.57 82.19,186.00 C78.34,176.93 75.57,169.10 76.03,168.62 C77.41,167.15 93.86,168.44 95.57,170.14 C96.40,170.97 101.35,181.73 106.58,194.07 C117.80,220.50 130.32,250.25 133.50,258.00 C134.74,261.02 140.16,273.85 145.54,286.50 C150.92,299.15 158.75,317.59 162.92,327.48 C168.05,339.60 171.18,345.78 172.56,346.48 C173.79,347.09 179.16,347.30 186.01,347.00 L 197.41 346.50 L 214.51 303.50 C223.92,279.85 233.79,254.88 236.46,248.00 C243.99,228.60 249.83,215.06 253.50,208.50 C264.76,188.40 283.81,174.77 307.48,169.89 C335.31,164.14 361.49,172.24 382.00,192.95 C399.22,210.32 407.08,230.98 405.71,255.28 C405.00,267.84 403.14,275.03 397.81,285.84 C385.09,311.64 362.35,327.70 332.50,331.96 C324.99,333.03 266.21,333.40 263.58,332.39 C262.17,331.85 262.00,326.78 261.97,285.64 C261.95,256.32 261.60,240.09 261.00,241.11 C260.48,242.00 257.02,250.10 253.31,259.11 L 246.57 275.50 L 246.20 300.00 C246.00,313.48 246.14,329.56 246.51,335.75 L 247.20 347.00 L 289.99 347.00 C335.13,347.00 341.37,346.52 354.46,342.01 C373.71,335.39 392.14,321.27 403.79,304.20 C411.25,293.28 413.10,289.60 416.50,279.00 C420.17,267.56 421.17,243.88 418.54,230.88 C414.99,213.38 407.60,199.05 395.41,186.10 C372.38,161.61 343.99,150.48 313.40,153.92 C289.17,156.65 270.93,165.85 252.81,184.50 C243.06,194.53 237.86,204.14 226.04,234.00 C221.57,245.27 217.31,255.87 216.57,257.55 C215.83,259.23 212.03,268.68 208.12,278.55 C204.22,288.42 197.76,304.60 193.76,314.50 L 186.50 332.50 L 181.36 332.80 L 176.23 333.10 L 174.01 328.53 C172.80,326.01 171.80,322.48 171.80,320.68 C171.80,317.90 180.02,295.97 188.55,276.00 C189.85,272.98 193.12,264.88 195.84,258.00 C213.61,212.97 216.80,205.28 222.30,194.20 C234.65,169.31 262.35,146.98 291.21,138.61 C332.63,126.61 375.54,138.35 406.60,170.20 C425.46,189.54 434.51,208.16 438.57,236.00 C443.84,272.08 431.16,307.42 403.39,334.08 C386.94,349.87 368.90,359.13 345.17,363.96 C335.64,365.91 332.20,366.00 281.30,365.76 L 227.50 365.50 L 227.31 346.15 C227.21,335.50 226.95,326.62 226.74,326.41 C226.53,326.20 225.10,329.28 223.55,333.26 C222.01,337.24 218.73,345.67 216.27,352.00 C213.82,358.33 211.34,364.06 210.78,364.75 C210.01,365.69 203.40,366.00 184.03,366.00 L 158.30 366.00 L 156.68 362.25 ZM 338.54 311.49 C361.40,305.70 379.25,288.00 385.03,265.39 C390.26,244.93 384.19,222.59 369.23,207.19 C361.22,198.95 354.17,194.27 344.00,190.45 C337.25,187.90 335.26,187.62 324.00,187.61 C312.96,187.60 310.65,187.91 304.21,190.26 C295.74,193.33 285.69,199.18 283.51,202.29 C282.21,204.15 282.00,211.86 282.00,258.06 C282.00,287.54 282.30,311.97 282.67,312.33 C283.03,312.70 294.41,313.00 307.96,313.00 C326.62,313.00 334.02,312.63 338.54,311.49 ZM 160.21 292.78 C159.07,289.88 153.79,277.38 148.49,265.00 C138.15,240.88 138.47,241.64 116.99,190.50 C109.13,171.80 102.02,155.71 101.19,154.75 C99.89,153.23 97.72,153.00 84.60,152.98 C76.29,152.98 69.00,152.64 68.38,152.23 C67.22,151.47 62.21,140.18 61.29,136.25 L 60.77 134.00 L 86.86 134.00 C117.05,134.00 113.26,132.48 119.32,147.00 C124.19,158.65 137.08,189.12 153.81,228.50 C161.51,246.65 169.07,264.55 170.60,268.27 L 173.37 275.05 L 168.80 286.24 C166.28,292.39 163.79,297.57 163.26,297.75 C162.74,297.92 161.36,295.69 160.21,292.78 ZM 174.35 249.25 C173.50,247.19 162.27,220.84 149.40,190.69 C136.53,160.55 126.00,135.46 126.00,134.94 C126.00,133.70 138.61,133.72 140.93,134.96 C141.92,135.49 143.31,137.40 144.03,139.21 C144.74,141.02 151.61,157.12 159.29,175.00 C166.97,192.88 174.27,209.98 175.51,213.00 C176.75,216.02 179.17,221.74 180.88,225.70 C182.60,229.65 184.01,233.70 184.03,234.70 C184.06,237.12 177.71,252.98 176.70,252.99 C176.26,253.00 175.20,251.31 174.35,249.25 Z" fill="rgba(0,0,0,1)"/>
</g>
</svg>